<svg width="338" height="68" viewBox="0 0 338 68" fill="none" xmlns="http://www.w3.org/2000/svg">
<rect x="0.88916" y="0.598083" width="71" height="67" rx="33.5" fill="#4F4268"/>
<rect x="10.8892" y="8.59808" width="51" height="51" rx="25.5" fill="#5D5174"/>
<path d="M35.2253 41.2888V27.9788L32.2443 29.7938V27.2308L35.2253 25.4488H37.5683V41.2888H35.2253Z" fill="#9790A6"/>
<rect x="81.8892" y="0.598083" width="175" height="67" rx="33.5" fill="white"/>
<rect x="91.8892" y="8.59808" width="51" height="51" rx="25.5" fill="#F5F4F8"/>
<path d="M111.709 41.2778L111.72 39.2318L118.617 33.0498C119.174 32.5584 119.552 32.0891 119.75 31.6418C119.955 31.1944 120.058 30.7471 120.058 30.2998C120.058 29.7351 119.933 29.2291 119.684 28.7818C119.435 28.3271 119.09 27.9678 118.65 27.7038C118.21 27.4398 117.704 27.3078 117.132 27.3078C116.545 27.3078 116.021 27.4471 115.559 27.7258C115.104 27.9971 114.749 28.3601 114.492 28.8148C114.235 29.2694 114.111 29.7608 114.118 30.2888H111.764C111.764 29.2621 111.995 28.3638 112.457 27.5938C112.926 26.8164 113.568 26.2114 114.382 25.7788C115.196 25.3388 116.127 25.1188 117.176 25.1188C118.173 25.1188 119.068 25.3461 119.86 25.8008C120.652 26.2481 121.275 26.8641 121.73 27.6488C122.192 28.4334 122.423 29.3281 122.423 30.3328C122.423 31.0588 122.328 31.6748 122.137 32.1808C121.946 32.6868 121.66 33.1561 121.279 33.5888C120.898 34.0214 120.421 34.4908 119.849 34.9968L114.525 39.7488L114.272 39.0888H122.423V41.2778H111.709Z" fill="#10002F"/>
<path d="M154.768 40.8681C153.478 40.8681 152.383 40.5831 151.483 40.0131C150.583 39.4431 149.896 38.6511 149.422 37.6371C148.954 36.6231 148.72 35.4501 148.72 34.1181C148.72 32.7861 148.954 31.6131 149.422 30.5991C149.896 29.5851 150.583 28.7931 151.483 28.2231C152.383 27.6531 153.478 27.3681 154.768 27.3681C156.268 27.3681 157.501 27.7491 158.467 28.5111C159.439 29.2731 160.108 30.2991 160.474 31.5891L158.845 32.0211C158.581 31.0551 158.11 30.2931 157.432 29.7351C156.754 29.1771 155.866 28.8981 154.768 28.8981C153.802 28.8981 152.998 29.1171 152.356 29.5551C151.714 29.9931 151.231 30.6051 150.907 31.3911C150.583 32.1711 150.418 33.0801 150.412 34.1181C150.406 35.1501 150.565 36.0591 150.889 36.8451C151.213 37.6251 151.699 38.2371 152.347 38.6811C152.995 39.1191 153.802 39.3381 154.768 39.3381C155.866 39.3381 156.754 39.0591 157.432 38.5011C158.11 37.9371 158.581 37.1751 158.845 36.2151L160.474 36.6471C160.108 37.9311 159.439 38.9571 158.467 39.7251C157.501 40.4871 156.268 40.8681 154.768 40.8681ZM166.588 40.8681C165.622 40.8681 164.788 40.6491 164.086 40.2111C163.39 39.7731 162.853 39.1671 162.475 38.3931C162.097 37.6191 161.908 36.7311 161.908 35.7291C161.908 34.7091 162.1 33.8151 162.484 33.0471C162.868 32.2791 163.411 31.6821 164.113 31.2561C164.815 30.8241 165.64 30.6081 166.588 30.6081C167.56 30.6081 168.397 30.8271 169.099 31.2651C169.801 31.6971 170.338 32.3001 170.71 33.0741C171.088 33.8421 171.277 34.7271 171.277 35.7291C171.277 36.7431 171.088 37.6371 170.71 38.4111C170.332 39.1791 169.792 39.7821 169.09 40.2201C168.388 40.6521 167.554 40.8681 166.588 40.8681ZM166.588 39.3471C167.596 39.3471 168.346 39.0111 168.838 38.3391C169.33 37.6671 169.576 36.7971 169.576 35.7291C169.576 34.6311 169.327 33.7581 168.829 33.1101C168.331 32.4561 167.584 32.1291 166.588 32.1291C165.91 32.1291 165.352 32.2821 164.914 32.5881C164.476 32.8941 164.149 33.3171 163.933 33.8571C163.717 34.3971 163.609 35.0211 163.609 35.7291C163.609 36.8211 163.861 37.6971 164.365 38.3571C164.869 39.0171 165.61 39.3471 166.588 39.3471ZM180.18 40.5981V35.7291C180.18 35.2671 180.138 34.8231 180.054 34.3971C179.976 33.9711 179.835 33.5901 179.631 33.2541C179.433 32.9121 179.163 32.6421 178.821 32.4441C178.485 32.2461 178.059 32.1471 177.543 32.1471C177.141 32.1471 176.775 32.2161 176.445 32.3541C176.121 32.4861 175.842 32.6901 175.608 32.9661C175.374 33.2421 175.191 33.5901 175.059 34.0101C174.933 34.4241 174.87 34.9131 174.87 35.4771L173.817 35.1531C173.817 34.2111 173.985 33.4041 174.321 32.7321C174.663 32.0541 175.14 31.5351 175.752 31.1751C176.37 30.8091 177.096 30.6261 177.93 30.6261C178.56 30.6261 179.097 30.7251 179.541 30.9231C179.985 31.1211 180.354 31.3851 180.648 31.7151C180.942 32.0391 181.173 32.4051 181.341 32.8131C181.509 33.2151 181.626 33.6261 181.692 34.0461C181.764 34.4601 181.8 34.8531 181.8 35.2251V40.5981H180.18ZM173.25 40.5981V30.8781H174.69V33.4791H174.87V40.5981H173.25ZM191.06 40.5981V35.7291C191.06 35.2671 191.018 34.8231 190.934 34.3971C190.856 33.9711 190.715 33.5901 190.511 33.2541C190.313 32.9121 190.043 32.6421 189.701 32.4441C189.365 32.2461 188.939 32.1471 188.423 32.1471C188.021 32.1471 187.655 32.2161 187.325 32.3541C187.001 32.4861 186.722 32.6901 186.488 32.9661C186.254 33.2421 186.071 33.5901 185.939 34.0101C185.813 34.4241 185.75 34.9131 185.75 35.4771L184.697 35.1531C184.697 34.2111 184.865 33.4041 185.201 32.7321C185.543 32.0541 186.02 31.5351 186.632 31.1751C187.25 30.8091 187.976 30.6261 188.81 30.6261C189.44 30.6261 189.977 30.7251 190.421 30.9231C190.865 31.1211 191.234 31.3851 191.528 31.7151C191.822 32.0391 192.053 32.4051 192.221 32.8131C192.389 33.2151 192.506 33.6261 192.572 34.0461C192.644 34.4601 192.68 34.8531 192.68 35.2251V40.5981H191.06ZM184.13 40.5981V30.8781H185.57V33.4791H185.75V40.5981H184.13ZM199.144 40.8681C198.19 40.8681 197.356 40.6581 196.642 40.2381C195.934 39.8121 195.382 39.2211 194.986 38.4651C194.59 37.7031 194.392 36.8151 194.392 35.8011C194.392 34.7391 194.587 33.8211 194.977 33.0471C195.367 32.2671 195.91 31.6671 196.606 31.2471C197.308 30.8211 198.13 30.6081 199.072 30.6081C200.05 30.6081 200.881 30.8331 201.565 31.2831C202.255 31.7331 202.771 32.3751 203.113 33.2091C203.461 34.0431 203.611 35.0361 203.563 36.1881H201.943V35.6121C201.925 34.4181 201.682 33.5271 201.214 32.9391C200.746 32.3451 200.05 32.0481 199.126 32.0481C198.136 32.0481 197.383 32.3661 196.867 33.0021C196.351 33.6381 196.093 34.5501 196.093 35.7381C196.093 36.8841 196.351 37.7721 196.867 38.4021C197.383 39.0321 198.118 39.3471 199.072 39.3471C199.714 39.3471 200.272 39.2001 200.746 38.9061C201.22 38.6121 201.592 38.1891 201.862 37.6371L203.401 38.1681C203.023 39.0261 202.453 39.6921 201.691 40.1661C200.935 40.6341 200.086 40.8681 199.144 40.8681ZM195.553 36.1881V34.9011H202.735V36.1881H195.553ZM209.662 40.8681C208.678 40.8681 207.841 40.6491 207.151 40.2111C206.467 39.7671 205.945 39.1581 205.585 38.3841C205.225 37.6101 205.039 36.7281 205.027 35.7381C205.039 34.7241 205.228 33.8331 205.594 33.0651C205.966 32.2911 206.497 31.6881 207.187 31.2561C207.877 30.8241 208.708 30.6081 209.68 30.6081C210.706 30.6081 211.588 30.8601 212.326 31.3641C213.07 31.8681 213.568 32.5581 213.82 33.4341L212.236 33.9111C212.032 33.3471 211.699 32.9091 211.237 32.5971C210.781 32.2851 210.256 32.1291 209.662 32.1291C208.996 32.1291 208.447 32.2851 208.015 32.5971C207.583 32.9031 207.262 33.3291 207.052 33.8751C206.842 34.4151 206.734 35.0361 206.728 35.7381C206.74 36.8181 206.989 37.6911 207.475 38.3571C207.967 39.0171 208.696 39.3471 209.662 39.3471C210.298 39.3471 210.826 39.2031 211.246 38.9151C211.666 38.6211 211.984 38.1981 212.2 37.6461L213.82 38.0691C213.484 38.9751 212.959 39.6681 212.245 40.1481C211.531 40.6281 210.67 40.8681 209.662 40.8681ZM221.084 40.5981C220.508 40.7121 219.938 40.7571 219.374 40.7331C218.816 40.7151 218.318 40.6041 217.88 40.4001C217.442 40.1901 217.109 39.8661 216.881 39.4281C216.689 39.0441 216.584 38.6571 216.566 38.2671C216.554 37.8711 216.548 37.4241 216.548 36.9261V28.1781H218.15V36.8541C218.15 37.2501 218.153 37.5891 218.159 37.8711C218.171 38.1531 218.234 38.3961 218.348 38.6001C218.564 38.9841 218.906 39.2091 219.374 39.2751C219.848 39.3411 220.418 39.3231 221.084 39.2211V40.5981ZM214.577 32.2011V30.8781H221.084V32.2011H214.577ZM225.581 40.5981L230.036 34.0371L225.698 27.6381H227.651L231.008 32.6871L234.356 27.6381H236.318L231.98 34.0371L236.426 40.5981H234.473L231.008 35.3961L227.543 40.5981H225.581Z" fill="#10002F"/>
<rect x="266.889" y="0.598083" width="71" height="67" rx="33.5" fill="#4F4268"/>
<rect x="276.889" y="8.59808" width="51" height="51" rx="25.5" fill="#5D5174"/>
<path d="M301.743 41.5858C300.958 41.5858 300.221 41.4391 299.532 41.1458C298.843 40.8451 298.245 40.4198 297.739 39.8698C297.24 39.3198 296.877 38.6708 296.65 37.9228L298.872 37.3068C299.085 37.9888 299.455 38.5131 299.983 38.8798C300.511 39.2391 301.098 39.4151 301.743 39.4078C302.322 39.4004 302.832 39.2648 303.272 39.0008C303.712 38.7368 304.057 38.3811 304.306 37.9338C304.555 37.4791 304.68 36.9584 304.68 36.3718C304.68 35.4918 304.405 34.7658 303.855 34.1938C303.312 33.6218 302.601 33.3358 301.721 33.3358C301.472 33.3358 301.215 33.3724 300.951 33.4458C300.694 33.5191 300.452 33.6144 300.225 33.7318L299.147 31.9168L304.735 26.9778L304.977 27.6378H297.277V25.4488H306.803V27.6378L302.161 32.1038L302.139 31.3558C303.136 31.3558 304.002 31.5794 304.735 32.0268C305.468 32.4668 306.033 33.0681 306.429 33.8308C306.832 34.5861 307.034 35.4331 307.034 36.3718C307.034 37.3838 306.796 38.2821 306.319 39.0668C305.85 39.8514 305.215 40.4674 304.416 40.9148C303.624 41.3621 302.733 41.5858 301.743 41.5858Z" fill="#9790A6"/>
</svg>
