<svg width="344" height="68" viewBox="0 0 344 68" fill="none" xmlns="http://www.w3.org/2000/svg">
<rect x="0.88916" y="0.0980835" width="181" height="67" rx="33.5" fill="white"/>
<rect x="10.8892" y="8.09808" width="51" height="51" rx="25.5" fill="#F5F4F8"/>
<path d="M35.2253 40.7888V27.4788L32.2443 29.2938V26.7308L35.2253 24.9488H37.5683V40.7888H35.2253Z" fill="#10002F"/>
<path d="M72.9806 40.3681C72.0626 40.3681 71.2346 40.2121 70.4966 39.9001C69.7646 39.5881 69.1586 39.1441 68.6786 38.5681C68.2046 37.9861 67.8956 37.2991 67.7516 36.5071L69.4076 36.2461C69.6176 37.0621 70.0526 37.7011 70.7126 38.1631C71.3786 38.6191 72.1616 38.8471 73.0616 38.8471C73.6436 38.8471 74.1686 38.7571 74.6366 38.5771C75.1106 38.3911 75.4856 38.1271 75.7616 37.7851C76.0376 37.4431 76.1756 37.0381 76.1756 36.5701C76.1756 36.2821 76.1246 36.0361 76.0226 35.8321C75.9266 35.6221 75.7916 35.4451 75.6176 35.3011C75.4496 35.1511 75.2576 35.0251 75.0416 34.9231C74.8256 34.8211 74.6006 34.7371 74.3666 34.6711L71.0636 33.6901C70.7036 33.5821 70.3556 33.4471 70.0196 33.2851C69.6836 33.1171 69.3836 32.9101 69.1196 32.6641C68.8556 32.4121 68.6456 32.1121 68.4896 31.7641C68.3336 31.4101 68.2556 30.9931 68.2556 30.5131C68.2556 29.7451 68.4536 29.0911 68.8496 28.5511C69.2516 28.0051 69.7946 27.5881 70.4786 27.3001C71.1626 27.0121 71.9336 26.8711 72.7916 26.8771C73.6616 26.8831 74.4386 27.0391 75.1226 27.3451C75.8126 27.6451 76.3826 28.0771 76.8326 28.6411C77.2886 29.2051 77.5946 29.8801 77.7506 30.6661L76.0496 30.9631C75.9596 30.4351 75.7586 29.9821 75.4466 29.6041C75.1406 29.2201 74.7566 28.9261 74.2946 28.7221C73.8326 28.5121 73.3256 28.4041 72.7736 28.3981C72.2456 28.3921 71.7686 28.4761 71.3426 28.6501C70.9166 28.8241 70.5776 29.0671 70.3256 29.3791C70.0736 29.6851 69.9476 30.0391 69.9476 30.4411C69.9476 30.8371 70.0616 31.1581 70.2896 31.4041C70.5176 31.6441 70.7966 31.8361 71.1266 31.9801C71.4626 32.1181 71.7896 32.2321 72.1076 32.3221L74.5736 33.0331C74.8556 33.1111 75.1796 33.2191 75.5456 33.3571C75.9176 33.4951 76.2776 33.6901 76.6256 33.9421C76.9736 34.1881 77.2616 34.5181 77.4896 34.9321C77.7176 35.3401 77.8316 35.8561 77.8316 36.4801C77.8316 37.1041 77.7056 37.6591 77.4536 38.1451C77.2076 38.6311 76.8626 39.0391 76.4186 39.3691C75.9746 39.6931 75.4586 39.9391 74.8706 40.1071C74.2826 40.2811 73.6526 40.3681 72.9806 40.3681ZM83.9315 40.3681C82.9775 40.3681 82.1435 40.1581 81.4295 39.7381C80.7215 39.3121 80.1695 38.7211 79.7735 37.9651C79.3775 37.2031 79.1795 36.3151 79.1795 35.3011C79.1795 34.2391 79.3745 33.3211 79.7645 32.5471C80.1545 31.7671 80.6975 31.1671 81.3935 30.7471C82.0955 30.3211 82.9175 30.1081 83.8595 30.1081C84.8375 30.1081 85.6685 30.3331 86.3525 30.7831C87.0425 31.2331 87.5585 31.8751 87.9005 32.7091C88.2485 33.5431 88.3985 34.5361 88.3505 35.6881H86.7305V35.1121C86.7125 33.9181 86.4695 33.0271 86.0015 32.4391C85.5335 31.8451 84.8375 31.5481 83.9135 31.5481C82.9235 31.5481 82.1705 31.8661 81.6545 32.5021C81.1385 33.1381 80.8805 34.0501 80.8805 35.2381C80.8805 36.3841 81.1385 37.2721 81.6545 37.9021C82.1705 38.5321 82.9055 38.8471 83.8595 38.8471C84.5015 38.8471 85.0595 38.7001 85.5335 38.4061C86.0075 38.1121 86.3795 37.6891 86.6495 37.1371L88.1885 37.6681C87.8105 38.5261 87.2405 39.1921 86.4785 39.6661C85.7225 40.1341 84.8735 40.3681 83.9315 40.3681ZM80.3405 35.6881V34.4011H87.5225V35.6881H80.3405ZM90.5342 40.0981V26.8681H92.1362V40.0981H90.5342ZM99.0487 40.3681C98.0947 40.3681 97.2607 40.1581 96.5467 39.7381C95.8387 39.3121 95.2867 38.7211 94.8907 37.9651C94.4947 37.2031 94.2967 36.3151 94.2967 35.3011C94.2967 34.2391 94.4917 33.3211 94.8817 32.5471C95.2717 31.7671 95.8147 31.1671 96.5107 30.7471C97.2127 30.3211 98.0347 30.1081 98.9767 30.1081C99.9547 30.1081 100.786 30.3331 101.47 30.7831C102.16 31.2331 102.676 31.8751 103.018 32.7091C103.366 33.5431 103.516 34.5361 103.468 35.6881H101.848V35.1121C101.83 33.9181 101.587 33.0271 101.119 32.4391C100.651 31.8451 99.9547 31.5481 99.0307 31.5481C98.0407 31.5481 97.2877 31.8661 96.7717 32.5021C96.2557 33.1381 95.9977 34.0501 95.9977 35.2381C95.9977 36.3841 96.2557 37.2721 96.7717 37.9021C97.2877 38.5321 98.0227 38.8471 98.9767 38.8471C99.6187 38.8471 100.177 38.7001 100.651 38.4061C101.125 38.1121 101.497 37.6891 101.767 37.1371L103.306 37.6681C102.928 38.5261 102.358 39.1921 101.596 39.6661C100.84 40.1341 99.9907 40.3681 99.0487 40.3681ZM95.4577 35.6881V34.4011H102.64V35.6881H95.4577ZM109.566 40.3681C108.582 40.3681 107.745 40.1491 107.055 39.7111C106.371 39.2671 105.849 38.6581 105.489 37.8841C105.129 37.1101 104.943 36.2281 104.931 35.2381C104.943 34.2241 105.132 33.3331 105.498 32.5651C105.87 31.7911 106.401 31.1881 107.091 30.7561C107.781 30.3241 108.612 30.1081 109.584 30.1081C110.61 30.1081 111.492 30.3601 112.23 30.8641C112.974 31.3681 113.472 32.0581 113.724 32.9341L112.14 33.4111C111.936 32.8471 111.603 32.4091 111.141 32.0971C110.685 31.7851 110.16 31.6291 109.566 31.6291C108.9 31.6291 108.351 31.7851 107.919 32.0971C107.487 32.4031 107.166 32.8291 106.956 33.3751C106.746 33.9151 106.638 34.5361 106.632 35.2381C106.644 36.3181 106.893 37.1911 107.379 37.8571C107.871 38.5171 108.6 38.8471 109.566 38.8471C110.202 38.8471 110.73 38.7031 111.15 38.4151C111.57 38.1211 111.888 37.6981 112.104 37.1461L113.724 37.5691C113.388 38.4751 112.863 39.1681 112.149 39.6481C111.435 40.1281 110.574 40.3681 109.566 40.3681ZM120.988 40.0981C120.412 40.2121 119.842 40.2571 119.278 40.2331C118.72 40.2151 118.222 40.1041 117.784 39.9001C117.346 39.6901 117.013 39.3661 116.785 38.9281C116.593 38.5441 116.488 38.1571 116.47 37.7671C116.458 37.3711 116.452 36.9241 116.452 36.4261V27.6781H118.054V36.3541C118.054 36.7501 118.057 37.0891 118.063 37.3711C118.075 37.6531 118.138 37.8961 118.252 38.1001C118.468 38.4841 118.81 38.7091 119.278 38.7751C119.752 38.8411 120.322 38.8231 120.988 38.7211V40.0981ZM114.481 31.7011V30.3781H120.988V31.7011H114.481ZM126.565 40.0981V27.1381H130.561C130.693 27.1381 130.924 27.1411 131.254 27.1471C131.584 27.1531 131.899 27.1771 132.199 27.2191C133.201 27.3511 134.038 27.7171 134.71 28.3171C135.388 28.9111 135.898 29.6671 136.24 30.5851C136.582 31.5031 136.753 32.5141 136.753 33.6181C136.753 34.7221 136.582 35.7331 136.24 36.6511C135.898 37.5691 135.388 38.3281 134.71 38.9281C134.038 39.5221 133.201 39.8851 132.199 40.0171C131.899 40.0531 131.581 40.0771 131.245 40.0891C130.915 40.0951 130.687 40.0981 130.561 40.0981H126.565ZM128.212 38.5681H130.561C130.789 38.5681 131.044 38.5621 131.326 38.5501C131.608 38.5321 131.854 38.5051 132.064 38.4691C132.772 38.3371 133.345 38.0401 133.783 37.5781C134.221 37.1161 134.542 36.5401 134.746 35.8501C134.95 35.1601 135.052 34.4161 135.052 33.6181C135.052 32.8021 134.947 32.0491 134.737 31.3591C134.533 30.6691 134.212 30.0961 133.774 29.6401C133.336 29.1841 132.766 28.8931 132.064 28.7671C131.854 28.7251 131.605 28.6981 131.317 28.6861C131.029 28.6741 130.777 28.6681 130.561 28.6681H128.212V38.5681ZM137.566 40.0981L141.904 27.1381H144.136L148.474 40.0981H146.809L142.75 28.0741H143.254L139.231 40.0981H137.566ZM139.654 37.0651V35.5621H146.386V37.0651H139.654ZM155.061 40.3681C153.771 40.3681 152.676 40.0831 151.776 39.5131C150.876 38.9431 150.189 38.1511 149.715 37.1371C149.247 36.1231 149.013 34.9501 149.013 33.6181C149.013 32.2861 149.247 31.1131 149.715 30.0991C150.189 29.0851 150.876 28.2931 151.776 27.7231C152.676 27.1531 153.771 26.8681 155.061 26.8681C156.357 26.8681 157.455 27.1531 158.355 27.7231C159.255 28.2931 159.939 29.0851 160.407 30.0991C160.875 31.1131 161.109 32.2861 161.109 33.6181C161.109 34.9501 160.875 36.1231 160.407 37.1371C159.939 38.1511 159.255 38.9431 158.355 39.5131C157.455 40.0831 156.357 40.3681 155.061 40.3681ZM155.061 38.8381C156.027 38.8441 156.831 38.6281 157.473 38.1901C158.121 37.7461 158.604 37.1311 158.922 36.3451C159.246 35.5591 159.408 34.6501 159.408 33.6181C159.408 32.5801 159.246 31.6711 158.922 30.8911C158.604 30.1111 158.121 29.5021 157.473 29.0641C156.831 28.6261 156.027 28.4041 155.061 28.3981C154.095 28.3921 153.291 28.6081 152.649 29.0461C152.013 29.4841 151.533 30.0961 151.209 30.8821C150.885 31.6681 150.72 32.5801 150.714 33.6181C150.708 34.6501 150.867 35.5561 151.191 36.3361C151.515 37.1161 151.998 37.7281 152.64 38.1721C153.288 38.6101 154.095 38.8321 155.061 38.8381Z" fill="#10002F"/>
<rect x="191.889" y="0.0980835" width="71" height="67" rx="33.5" fill="#4F4268"/>
<rect x="201.889" y="8.09808" width="51" height="51" rx="25.5" fill="#5D5174"/>
<path d="M221.709 40.7778L221.72 38.7318L228.617 32.5498C229.174 32.0584 229.552 31.5891 229.75 31.1418C229.955 30.6944 230.058 30.2471 230.058 29.7998C230.058 29.2351 229.933 28.7291 229.684 28.2818C229.435 27.8271 229.09 27.4678 228.65 27.2038C228.21 26.9398 227.704 26.8078 227.132 26.8078C226.545 26.8078 226.021 26.9471 225.559 27.2258C225.104 27.4971 224.749 27.8601 224.492 28.3148C224.235 28.7694 224.111 29.2608 224.118 29.7888H221.764C221.764 28.7621 221.995 27.8638 222.457 27.0938C222.926 26.3164 223.568 25.7114 224.382 25.2788C225.196 24.8388 226.127 24.6188 227.176 24.6188C228.173 24.6188 229.068 24.8461 229.86 25.3008C230.652 25.7481 231.275 26.3641 231.73 27.1488C232.192 27.9334 232.423 28.8281 232.423 29.8328C232.423 30.5588 232.328 31.1748 232.137 31.6808C231.946 32.1868 231.66 32.6561 231.279 33.0888C230.898 33.5214 230.421 33.9908 229.849 34.4968L224.525 39.2488L224.272 38.5888H232.423V40.7778H221.709Z" fill="#9790A6"/>
<rect x="272.889" y="0.0980835" width="71" height="67" rx="33.5" fill="#4F4268"/>
<rect x="282.889" y="8.09808" width="51" height="51" rx="25.5" fill="#5D5174"/>
<path d="M307.743 41.0858C306.958 41.0858 306.221 40.9391 305.532 40.6458C304.843 40.3451 304.245 39.9198 303.739 39.3698C303.24 38.8198 302.877 38.1708 302.65 37.4228L304.872 36.8068C305.085 37.4888 305.455 38.0131 305.983 38.3798C306.511 38.7391 307.098 38.9151 307.743 38.9078C308.322 38.9004 308.832 38.7648 309.272 38.5008C309.712 38.2368 310.057 37.8811 310.306 37.4338C310.555 36.9791 310.68 36.4584 310.68 35.8718C310.68 34.9918 310.405 34.2658 309.855 33.6938C309.312 33.1218 308.601 32.8358 307.721 32.8358C307.472 32.8358 307.215 32.8724 306.951 32.9458C306.694 33.0191 306.452 33.1144 306.225 33.2318L305.147 31.4168L310.735 26.4778L310.977 27.1378H303.277V24.9488H312.803V27.1378L308.161 31.6038L308.139 30.8558C309.136 30.8558 310.002 31.0794 310.735 31.5268C311.468 31.9668 312.033 32.5681 312.429 33.3308C312.832 34.0861 313.034 34.9331 313.034 35.8718C313.034 36.8838 312.796 37.7821 312.319 38.5668C311.85 39.3514 311.215 39.9674 310.416 40.4148C309.624 40.8621 308.733 41.0858 307.743 41.0858Z" fill="#9790A6"/>
</svg>
