<svg width="351" height="68" viewBox="0 0 351 68" fill="none" xmlns="http://www.w3.org/2000/svg">
<rect x="0.38916" y="0.598083" width="71" height="67" rx="33.5" fill="#4F4268"/>
<rect x="10.3892" y="8.59808" width="51" height="51" rx="25.5" fill="#5D5174"/>
<path d="M34.7253 41.2888V27.9788L31.7443 29.7938V27.2308L34.7253 25.4488H37.0683V41.2888H34.7253Z" fill="#9790A6"/>
<rect x="81.3892" y="0.598083" width="71" height="67" rx="33.5" fill="#4F4268"/>
<rect x="91.3892" y="8.59808" width="51" height="51" rx="25.5" fill="#5D5174"/>
<path d="M111.209 41.2778L111.22 39.2318L118.117 33.0498C118.674 32.5584 119.052 32.0891 119.25 31.6418C119.455 31.1944 119.558 30.7471 119.558 30.2998C119.558 29.7351 119.433 29.2291 119.184 28.7818C118.935 28.3271 118.59 27.9678 118.15 27.7038C117.71 27.4398 117.204 27.3078 116.632 27.3078C116.045 27.3078 115.521 27.4471 115.059 27.7258C114.604 27.9971 114.249 28.3601 113.992 28.8148C113.735 29.2694 113.611 29.7608 113.618 30.2888H111.264C111.264 29.2621 111.495 28.3638 111.957 27.5938C112.426 26.8164 113.068 26.2114 113.882 25.7788C114.696 25.3388 115.627 25.1188 116.676 25.1188C117.673 25.1188 118.568 25.3461 119.36 25.8008C120.152 26.2481 120.775 26.8641 121.23 27.6488C121.692 28.4334 121.923 29.3281 121.923 30.3328C121.923 31.0588 121.828 31.6748 121.637 32.1808C121.446 32.6868 121.16 33.1561 120.779 33.5888C120.398 34.0214 119.921 34.4908 119.349 34.9968L114.025 39.7488L113.772 39.0888H121.923V41.2778H111.209Z" fill="#9790A6"/>
<rect x="162.389" y="0.598083" width="188" height="67" rx="33.5" fill="white"/>
<rect x="172.389" y="8.59808" width="51" height="51" rx="25.5" fill="#F5F4F8"/>
<path d="M197.243 41.5858C196.458 41.5858 195.721 41.4391 195.032 41.1458C194.343 40.8451 193.745 40.4198 193.239 39.8698C192.74 39.3198 192.377 38.6708 192.15 37.9228L194.372 37.3068C194.585 37.9888 194.955 38.5131 195.483 38.8798C196.011 39.2391 196.598 39.4151 197.243 39.4078C197.822 39.4004 198.332 39.2648 198.772 39.0008C199.212 38.7368 199.557 38.3811 199.806 37.9338C200.055 37.4791 200.18 36.9584 200.18 36.3718C200.18 35.4918 199.905 34.7658 199.355 34.1938C198.812 33.6218 198.101 33.3358 197.221 33.3358C196.972 33.3358 196.715 33.3724 196.451 33.4458C196.194 33.5191 195.952 33.6144 195.725 33.7318L194.647 31.9168L200.235 26.9778L200.477 27.6378H192.777V25.4488H202.303V27.6378L197.661 32.1038L197.639 31.3558C198.636 31.3558 199.502 31.5794 200.235 32.0268C200.968 32.4668 201.533 33.0681 201.929 33.8308C202.332 34.5861 202.534 35.4331 202.534 36.3718C202.534 37.3838 202.296 38.2821 201.819 39.0668C201.35 39.8514 200.715 40.4674 199.916 40.9148C199.124 41.3621 198.233 41.5858 197.243 41.5858Z" fill="#10002F"/>
<path d="M234.386 40.8681C233.468 40.8681 232.64 40.7121 231.902 40.4001C231.17 40.0881 230.564 39.6441 230.084 39.0681C229.61 38.4861 229.301 37.7991 229.157 37.0071L230.813 36.7461C231.023 37.5621 231.458 38.2011 232.118 38.6631C232.784 39.1191 233.567 39.3471 234.467 39.3471C235.049 39.3471 235.574 39.2571 236.042 39.0771C236.516 38.8911 236.891 38.6271 237.167 38.2851C237.443 37.9431 237.581 37.5381 237.581 37.0701C237.581 36.7821 237.53 36.5361 237.428 36.3321C237.332 36.1221 237.197 35.9451 237.023 35.8011C236.855 35.6511 236.663 35.5251 236.447 35.4231C236.231 35.3211 236.006 35.2371 235.772 35.1711L232.469 34.1901C232.109 34.0821 231.761 33.9471 231.425 33.7851C231.089 33.6171 230.789 33.4101 230.525 33.1641C230.261 32.9121 230.051 32.6121 229.895 32.2641C229.739 31.9101 229.661 31.4931 229.661 31.0131C229.661 30.2451 229.859 29.5911 230.255 29.0511C230.657 28.5051 231.2 28.0881 231.884 27.8001C232.568 27.5121 233.339 27.3711 234.197 27.3771C235.067 27.3831 235.844 27.5391 236.528 27.8451C237.218 28.1451 237.788 28.5771 238.238 29.1411C238.694 29.7051 239 30.3801 239.156 31.1661L237.455 31.4631C237.365 30.9351 237.164 30.4821 236.852 30.1041C236.546 29.7201 236.162 29.4261 235.7 29.2221C235.238 29.0121 234.731 28.9041 234.179 28.8981C233.651 28.8921 233.174 28.9761 232.748 29.1501C232.322 29.3241 231.983 29.5671 231.731 29.8791C231.479 30.1851 231.353 30.5391 231.353 30.9411C231.353 31.3371 231.467 31.6581 231.695 31.9041C231.923 32.1441 232.202 32.3361 232.532 32.4801C232.868 32.6181 233.195 32.7321 233.513 32.8221L235.979 33.5331C236.261 33.6111 236.585 33.7191 236.951 33.8571C237.323 33.9951 237.683 34.1901 238.031 34.4421C238.379 34.6881 238.667 35.0181 238.895 35.4321C239.123 35.8401 239.237 36.3561 239.237 36.9801C239.237 37.6041 239.111 38.1591 238.859 38.6451C238.613 39.1311 238.268 39.5391 237.824 39.8691C237.38 40.1931 236.864 40.4391 236.276 40.6071C235.688 40.7811 235.058 40.8681 234.386 40.8681ZM246.552 40.5981C245.976 40.7121 245.406 40.7571 244.842 40.7331C244.284 40.7151 243.786 40.6041 243.348 40.4001C242.91 40.1901 242.577 39.8661 242.349 39.4281C242.157 39.0441 242.052 38.6571 242.034 38.2671C242.022 37.8711 242.016 37.4241 242.016 36.9261V28.1781H243.618V36.8541C243.618 37.2501 243.621 37.5891 243.627 37.8711C243.639 38.1531 243.702 38.3961 243.816 38.6001C244.032 38.9841 244.374 39.2091 244.842 39.2751C245.316 39.3411 245.886 39.3231 246.552 39.2211V40.5981ZM240.045 32.2011V30.8781H246.552V32.2011H240.045ZM251.288 40.8681C250.562 40.8681 249.953 40.7361 249.461 40.4721C248.975 40.2021 248.606 39.8481 248.354 39.4101C248.108 38.9721 247.985 38.4921 247.985 37.9701C247.985 37.4601 248.081 37.0191 248.273 36.6471C248.471 36.2691 248.747 35.9571 249.101 35.7111C249.455 35.4591 249.878 35.2611 250.37 35.1171C250.832 34.9911 251.348 34.8831 251.918 34.7931C252.494 34.6971 253.076 34.6101 253.664 34.5321C254.252 34.4541 254.801 34.3791 255.311 34.3071L254.735 34.6401C254.753 33.7761 254.579 33.1371 254.213 32.7231C253.853 32.3091 253.229 32.1021 252.341 32.1021C251.753 32.1021 251.237 32.2371 250.793 32.5071C250.355 32.7711 250.046 33.2031 249.866 33.8031L248.345 33.3441C248.579 32.4921 249.032 31.8231 249.704 31.3371C250.376 30.8511 251.261 30.6081 252.359 30.6081C253.241 30.6081 253.997 30.7671 254.627 31.0851C255.263 31.3971 255.719 31.8711 255.995 32.5071C256.133 32.8071 256.22 33.1341 256.256 33.4881C256.292 33.8361 256.31 34.2021 256.31 34.5861V40.5981H254.888V38.2671L255.221 38.4831C254.855 39.2691 254.342 39.8631 253.682 40.2651C253.028 40.6671 252.23 40.8681 251.288 40.8681ZM251.531 39.5271C252.107 39.5271 252.605 39.4251 253.025 39.2211C253.451 39.0111 253.793 38.7381 254.051 38.4021C254.309 38.0601 254.477 37.6881 254.555 37.2861C254.645 36.9861 254.693 36.6531 254.699 36.2871C254.711 35.9151 254.717 35.6301 254.717 35.4321L255.275 35.6751C254.753 35.7471 254.24 35.8161 253.736 35.8821C253.232 35.9481 252.755 36.0201 252.305 36.0981C251.855 36.1701 251.45 36.2571 251.09 36.3591C250.826 36.4431 250.577 36.5511 250.343 36.6831C250.115 36.8151 249.929 36.9861 249.785 37.1961C249.647 37.4001 249.578 37.6551 249.578 37.9611C249.578 38.2251 249.644 38.4771 249.776 38.7171C249.914 38.9571 250.124 39.1521 250.406 39.3021C250.694 39.4521 251.069 39.5271 251.531 39.5271ZM258.65 40.5981V30.8781H260.081V33.2271L259.847 32.9211C259.961 32.6211 260.108 32.3451 260.288 32.0931C260.474 31.8411 260.681 31.6341 260.909 31.4721C261.161 31.2681 261.446 31.1121 261.764 31.0041C262.082 30.8961 262.406 30.8331 262.736 30.8151C263.066 30.7911 263.375 30.8121 263.663 30.8781V32.3811C263.327 32.2911 262.958 32.2671 262.556 32.3091C262.154 32.3511 261.782 32.4981 261.44 32.7501C261.128 32.9721 260.885 33.2421 260.711 33.5601C260.543 33.8781 260.426 34.2231 260.36 34.5951C260.294 34.9611 260.261 35.3361 260.261 35.7201V40.5981H258.65ZM270.792 40.5981C270.216 40.7121 269.646 40.7571 269.082 40.7331C268.524 40.7151 268.026 40.6041 267.588 40.4001C267.15 40.1901 266.817 39.8661 266.589 39.4281C266.397 39.0441 266.292 38.6571 266.274 38.2671C266.262 37.8711 266.256 37.4241 266.256 36.9261V28.1781H267.858V36.8541C267.858 37.2501 267.861 37.5891 267.867 37.8711C267.879 38.1531 267.942 38.3961 268.056 38.6001C268.272 38.9841 268.614 39.2091 269.082 39.2751C269.556 39.3411 270.126 39.3231 270.792 39.2211V40.5981ZM264.285 32.2011V30.8781H270.792V32.2011H264.285ZM279.132 40.8681C278.406 40.8681 277.797 40.7361 277.305 40.4721C276.819 40.2021 276.45 39.8481 276.198 39.4101C275.952 38.9721 275.829 38.4921 275.829 37.9701C275.829 37.4601 275.925 37.0191 276.117 36.6471C276.315 36.2691 276.591 35.9571 276.945 35.7111C277.299 35.4591 277.722 35.2611 278.214 35.1171C278.676 34.9911 279.192 34.8831 279.762 34.7931C280.338 34.6971 280.92 34.6101 281.508 34.5321C282.096 34.4541 282.645 34.3791 283.155 34.3071L282.579 34.6401C282.597 33.7761 282.423 33.1371 282.057 32.7231C281.697 32.3091 281.073 32.1021 280.185 32.1021C279.597 32.1021 279.081 32.2371 278.637 32.5071C278.199 32.7711 277.89 33.2031 277.71 33.8031L276.189 33.3441C276.423 32.4921 276.876 31.8231 277.548 31.3371C278.22 30.8511 279.105 30.6081 280.203 30.6081C281.085 30.6081 281.841 30.7671 282.471 31.0851C283.107 31.3971 283.563 31.8711 283.839 32.5071C283.977 32.8071 284.064 33.1341 284.1 33.4881C284.136 33.8361 284.154 34.2021 284.154 34.5861V40.5981H282.732V38.2671L283.065 38.4831C282.699 39.2691 282.186 39.8631 281.526 40.2651C280.872 40.6671 280.074 40.8681 279.132 40.8681ZM279.375 39.5271C279.951 39.5271 280.449 39.4251 280.869 39.2211C281.295 39.0111 281.637 38.7381 281.895 38.4021C282.153 38.0601 282.321 37.6881 282.399 37.2861C282.489 36.9861 282.537 36.6531 282.543 36.2871C282.555 35.9151 282.561 35.6301 282.561 35.4321L283.119 35.6751C282.597 35.7471 282.084 35.8161 281.58 35.8821C281.076 35.9481 280.599 36.0201 280.149 36.0981C279.699 36.1701 279.294 36.2571 278.934 36.3591C278.67 36.4431 278.421 36.5511 278.187 36.6831C277.959 36.8151 277.773 36.9861 277.629 37.1961C277.491 37.4001 277.422 37.6551 277.422 37.9611C277.422 38.2251 277.488 38.4771 277.62 38.7171C277.758 38.9571 277.968 39.1521 278.25 39.3021C278.538 39.4521 278.913 39.5271 279.375 39.5271ZM295.425 40.8681C294.135 40.8681 293.04 40.5831 292.14 40.0131C291.24 39.4431 290.553 38.6511 290.079 37.6371C289.611 36.6231 289.377 35.4501 289.377 34.1181C289.377 32.7861 289.611 31.6131 290.079 30.5991C290.553 29.5851 291.24 28.7931 292.14 28.2231C293.04 27.6531 294.135 27.3681 295.425 27.3681C296.925 27.3681 298.158 27.7491 299.124 28.5111C300.096 29.2731 300.765 30.2991 301.131 31.5891L299.502 32.0211C299.238 31.0551 298.767 30.2931 298.089 29.7351C297.411 29.1771 296.523 28.8981 295.425 28.8981C294.459 28.8981 293.655 29.1171 293.013 29.5551C292.371 29.9931 291.888 30.6051 291.564 31.3911C291.24 32.1711 291.075 33.0801 291.069 34.1181C291.063 35.1501 291.222 36.0591 291.546 36.8451C291.87 37.6251 292.356 38.2371 293.004 38.6811C293.652 39.1191 294.459 39.3381 295.425 39.3381C296.523 39.3381 297.411 39.0591 298.089 38.5011C298.767 37.9371 299.238 37.1751 299.502 36.2151L301.131 36.6471C300.765 37.9311 300.096 38.9571 299.124 39.7251C298.158 40.4871 296.925 40.8681 295.425 40.8681ZM310.026 40.5981V35.7291C310.026 35.2671 309.984 34.8231 309.9 34.3971C309.822 33.9711 309.681 33.5901 309.477 33.2541C309.279 32.9121 309.009 32.6421 308.667 32.4441C308.331 32.2461 307.905 32.1471 307.389 32.1471C306.987 32.1471 306.621 32.2161 306.291 32.3541C305.967 32.4861 305.688 32.6901 305.454 32.9661C305.22 33.2421 305.037 33.5901 304.905 34.0101C304.779 34.4241 304.716 34.9131 304.716 35.4771L303.663 35.1531C303.663 34.2111 303.831 33.4041 304.167 32.7321C304.509 32.0541 304.986 31.5351 305.598 31.1751C306.216 30.8091 306.942 30.6261 307.776 30.6261C308.406 30.6261 308.943 30.7251 309.387 30.9231C309.831 31.1211 310.2 31.3851 310.494 31.7151C310.788 32.0391 311.019 32.4051 311.187 32.8131C311.355 33.2151 311.472 33.6261 311.538 34.0461C311.61 34.4601 311.646 34.8531 311.646 35.2251V40.5981H310.026ZM303.096 40.5981V27.6381H304.536V34.7931H304.716V40.5981H303.096ZM316.749 40.8681C316.023 40.8681 315.414 40.7361 314.922 40.4721C314.436 40.2021 314.067 39.8481 313.815 39.4101C313.569 38.9721 313.446 38.4921 313.446 37.9701C313.446 37.4601 313.542 37.0191 313.734 36.6471C313.932 36.2691 314.208 35.9571 314.562 35.7111C314.916 35.4591 315.339 35.2611 315.831 35.1171C316.293 34.9911 316.809 34.8831 317.379 34.7931C317.955 34.6971 318.537 34.6101 319.125 34.5321C319.713 34.4541 320.262 34.3791 320.772 34.3071L320.196 34.6401C320.214 33.7761 320.04 33.1371 319.674 32.7231C319.314 32.3091 318.69 32.1021 317.802 32.1021C317.214 32.1021 316.698 32.2371 316.254 32.5071C315.816 32.7711 315.507 33.2031 315.327 33.8031L313.806 33.3441C314.04 32.4921 314.493 31.8231 315.165 31.3371C315.837 30.8511 316.722 30.6081 317.82 30.6081C318.702 30.6081 319.458 30.7671 320.088 31.0851C320.724 31.3971 321.18 31.8711 321.456 32.5071C321.594 32.8071 321.681 33.1341 321.717 33.4881C321.753 33.8361 321.771 34.2021 321.771 34.5861V40.5981H320.349V38.2671L320.682 38.4831C320.316 39.2691 319.803 39.8631 319.143 40.2651C318.489 40.6671 317.691 40.8681 316.749 40.8681ZM316.992 39.5271C317.568 39.5271 318.066 39.4251 318.486 39.2211C318.912 39.0111 319.254 38.7381 319.512 38.4021C319.77 38.0601 319.938 37.6881 320.016 37.2861C320.106 36.9861 320.154 36.6531 320.16 36.2871C320.172 35.9151 320.178 35.6301 320.178 35.4321L320.736 35.6751C320.214 35.7471 319.701 35.8161 319.197 35.8821C318.693 35.9481 318.216 36.0201 317.766 36.0981C317.316 36.1701 316.911 36.2571 316.551 36.3591C316.287 36.4431 316.038 36.5511 315.804 36.6831C315.576 36.8151 315.39 36.9861 315.246 37.1961C315.108 37.4001 315.039 37.6551 315.039 37.9611C315.039 38.2251 315.105 38.4771 315.237 38.7171C315.375 38.9571 315.585 39.1521 315.867 39.3021C316.155 39.4521 316.53 39.5271 316.992 39.5271ZM329.538 40.5981C328.962 40.7121 328.392 40.7571 327.828 40.7331C327.27 40.7151 326.772 40.6041 326.334 40.4001C325.896 40.1901 325.563 39.8661 325.335 39.4281C325.143 39.0441 325.038 38.6571 325.02 38.2671C325.008 37.8711 325.002 37.4241 325.002 36.9261V28.1781H326.604V36.8541C326.604 37.2501 326.607 37.5891 326.613 37.8711C326.625 38.1531 326.688 38.3961 326.802 38.6001C327.018 38.9841 327.36 39.2091 327.828 39.2751C328.302 39.3411 328.872 39.3231 329.538 39.2211V40.5981ZM323.031 32.2011V30.8781H329.538V32.2011H323.031Z" fill="#10002F"/>
</svg>
